<?xml version="1.0" encoding="UTF-8"?>
<svg version="1.1" xmlns="http://www.w3.org/2000/svg" width="256" height="256">
<path d="M0 0 C84.48 0 168.96 0 256 0 C256 84.48 256 168.96 256 256 C171.52 256 87.04 256 0 256 C0 171.52 0 87.04 0 0 Z " fill="#605443" transform="translate(0,0)"/>
<path d="M0 0 C0.96196289 0.00757324 1.92392578 0.01514648 2.91503906 0.02294922 C16.65358125 0.33970793 28.37830644 4.75147041 38.5 14.25 C50.057478 26.50793121 50.13791652 41.40654672 50.6875 57.375 C50.89000885 63.23650618 51.11962788 69.06518741 51.70703125 74.90234375 C52.29088358 80.9588603 52.37130089 86.98117109 52.375 93.0625 C52.38724609 94.12984375 52.39949219 95.1971875 52.41210938 96.296875 C52.43725686 109.94357654 48.68648106 122.33749258 40.046875 133.10546875 C31.53738706 141.2629455 22.05686272 143.03479698 10.65966797 142.91064453 C-7.41935382 142.25522242 -28.49862889 136.75137111 -41.5625 123.6875 C-51.58355361 109.21264478 -56.99475237 88.92286845 -57.8125 71.4375 C-57.87695312 70.16003906 -57.94140625 68.88257812 -58.0078125 67.56640625 C-58.68516795 47.93212963 -52.18261135 31.01839215 -38.8125 16.4375 C-27.91032743 5.38115529 -15.51539016 -0.17227169 0 0 Z " fill="#FDFCFC" transform="translate(77.8125,58.5625)"/>
<path d="M0 0 C10.00386841 6.37501418 15.37702182 15.20119912 18.5625 26.52734375 C20.13047108 34.16268118 20.49591471 42.00464162 20.7890625 49.77734375 C20.84006104 50.95055176 20.84006104 50.95055176 20.89208984 52.14746094 C21.3366363 63.68761619 20.65759925 74.89463365 19.1015625 86.33984375 C18.95307861 87.48026123 18.80459473 88.62067871 18.65161133 89.7956543 C16.69310267 102.97847663 12.50244635 115.30582068 2.1171875 124.2109375 C-3.47486538 128.14555203 -8.73225378 129.16648261 -15.4609375 129.15234375 C-16.27288574 129.15073242 -17.08483398 129.14912109 -17.92138672 129.14746094 C-25.14345256 129.00964041 -32.20326763 128.13093274 -39.3359375 127.02734375 C-40.37782227 126.87056152 -41.41970703 126.7137793 -42.49316406 126.55224609 C-50.2870485 125.24574955 -58.09139539 123.65410438 -63.3984375 117.40234375 C-67.23027392 111.67051087 -69.92525997 105.26127619 -72.2109375 98.77734375 C-72.55874268 97.85083008 -72.90654785 96.92431641 -73.26489258 95.96972656 C-76.64807641 85.87206208 -76.79226063 76.25384117 -76.67749023 65.69140625 C-76.64848364 62.78197134 -76.65693295 59.87436235 -76.66992188 56.96484375 C-76.64944183 38.11316442 -74.29633191 22.43833313 -60.828125 8.19921875 C-42.72407747 -8.55378046 -22.23552192 -11.99779481 0 0 Z " fill="#FCFCFC" transform="translate(210.2109375,67.22265625)"/>
<path d="M0 0 C4.70547552 2.62953044 7.99207643 5.51456821 10.90625 10.046875 C11.40640625 10.81128906 11.9065625 11.57570313 12.421875 12.36328125 C16.10183402 18.68675513 15.42109767 27.36708922 14.65625 34.484375 C12.73600053 41.39038429 8.78346536 46.76150997 2.65625 50.484375 C-9.54964037 56.44953789 -23.39890732 58.98198369 -36.78125 55.359375 C-45.42830015 52.19222716 -52.84940973 47.7442436 -57.34375 39.484375 C-60.3743372 31.976069 -60.69307053 23.37729943 -58.5390625 15.56640625 C-55.15071807 8.03026088 -49.04705719 1.95942564 -41.53125 -1.515625 C-38.34375 -2.515625 -38.34375 -2.515625 -34.34375 -2.515625 C-34.77300781 -1.68224609 -34.77300781 -1.68224609 -35.2109375 -0.83203125 C-41.16100179 11.33482434 -43.02457761 25.74538189 -38.65625 38.796875 C-36.18565454 44.41900742 -33.20333191 49.06458469 -27.34375 51.484375 C-21.84259569 52.37365934 -16.995174 51.60592933 -12.13671875 48.890625 C-7.82823983 45.51142585 -5.47374711 40.7542651 -4.34375 35.484375 C-3.47785344 24.93224464 -3.38970439 14.67904646 -9.21875 5.546875 C-12.41113965 2.44837916 -14.96066652 1.6284462 -19.34375 1.171875 C-22.82547943 1.53455515 -24.59045899 2.34292643 -27.34375 4.484375 C-29.23324509 7.53972876 -29.68810193 10.17949944 -29.96875 13.734375 C-30.04351562 14.62640625 -30.11828125 15.5184375 -30.1953125 16.4375 C-30.24429688 17.11296875 -30.29328125 17.7884375 -30.34375 18.484375 C-32.90775777 15.92036723 -32.67008634 14.79655485 -32.71875 11.234375 C-32.61300036 6.18482984 -31.92600542 3.25517017 -28.34375 -0.515625 C-20.09257752 -6.86268075 -8.66662776 -3.85712554 0 0 Z " fill="#645847" transform="translate(98.34375,105.515625)"/>
<path d="M0 0 C1.04704102 0.00966797 1.04704102 0.00966797 2.11523438 0.01953125 C8.2537799 0.10922689 14.32848212 0.57659821 20.4375 1.1875 C20.1075 5.8075 19.7775 10.4275 19.4375 15.1875 C18.7775 15.1875 18.1175 15.1875 17.4375 15.1875 C16.78645833 13.4296875 16.13541667 11.671875 15.484375 9.9140625 C14.07529859 7.59013797 13.0046449 7.07377622 10.4375 6.1875 C7.29675557 5.83356587 7.29675557 5.83356587 3.9375 5.875 C2.8134375 5.85824219 1.689375 5.84148437 0.53125 5.82421875 C-2.834092 6.21939148 -4.21119146 6.7854438 -6.5625 9.1875 C-7.31265195 12.14441709 -7.31265195 12.14441709 -6.5625 15.1875 C-1.4771746 20.12542466 5.3880694 23.12456616 11.6015625 26.4140625 C18.99433322 30.4906475 24.96030086 35.30429553 28.4375 43.1875 C29.49313136 49.62129535 28.44451743 54.66893068 24.97265625 60.15234375 C19.88773242 66.89342598 13.65456501 70.31324677 5.4375 72.1875 C-4.00495759 73.18795086 -12.71449542 72.44377417 -20.375 66.5 C-25.28181434 61.85564317 -27.74026987 56.96472719 -28.0625 50.1875 C-27.87122848 45.03910828 -26.16612208 41.58111226 -23.5625 37.1875 C-23.2325 38.1775 -22.9025 39.1675 -22.5625 40.1875 C-22.8925 40.8475 -23.2225 41.5075 -23.5625 42.1875 C-24.32708487 48.93088788 -23.76224609 54.69364611 -19.5625 60.1875 C-13.42773715 65.79244243 -7.9176147 66.53638452 0.2578125 66.47265625 C4.61249358 66.08212588 6.32888999 65.21209353 9.4375 62.1875 C11.78812814 58.982098 11.83557915 56.08867562 11.4375 52.1875 C9.31445938 47.64433799 6.72764725 45.79789781 2.4375 43.3125 C1.27181573 42.62163286 0.10645683 41.93021648 -1.05859375 41.23828125 C-1.64366699 40.89619629 -2.22874023 40.55411133 -2.83154297 40.20166016 C-5.45024522 38.66737396 -8.04293579 37.095111 -10.625 35.5 C-11.91083984 34.72076172 -11.91083984 34.72076172 -13.22265625 33.92578125 C-16.98492937 31.13077033 -19.88173693 27.58464784 -21.5625 23.1875 C-22.24323835 17.9473978 -22.21983258 13.5265108 -19.875 8.75 C-13.84690126 2.07021491 -8.98431264 -0.09660551 0 0 Z " fill="#655949" transform="translate(182.5625,98.8125)"/>
<path d="M0 0 C0.33 0 0.66 0 1 0 C1 7.59 1 15.18 1 23 C-6.92 23 -14.84 23 -23 23 C-23 22.67 -23 22.34 -23 22 C-22.34773437 21.82984375 -21.69546875 21.6596875 -21.0234375 21.484375 C-12.8107704 19.20711628 -7.42291071 16.62531803 -3.03515625 9.10546875 C-1.56796013 6.1212472 -0.74203024 3.23795014 0 0 Z " fill="#000000" transform="translate(255,233)"/>
<path d="M0 0 C2 4 2 4 2.89453125 5.96484375 C6.54451164 13.80841862 11.27584835 17.48343792 19 21 C20.32 21.66 21.64 22.32 23 23 C15.41 23 7.82 23 0 23 C0 15.41 0 7.82 0 0 Z " fill="#000000" transform="translate(0,233)"/>
<path d="M0 0 C7.59 0 15.18 0 23 0 C23 7.59 23 15.18 23 23 C21 19 21 19 20.10546875 17.03515625 C16.45548836 9.19158138 11.72415165 5.51656208 4 2 C2.68 1.34 1.36 0.68 0 0 Z " fill="#000000" transform="translate(233,0)"/>
<path d="M0 0 C7.59 0 15.18 0 23 0 C19 2 19 2 17.03515625 2.89453125 C9.19158138 6.54451164 5.51656208 11.27584835 2 19 C1.34 20.32 0.68 21.64 0 23 C0 15.41 0 7.82 0 0 Z " fill="#000000" transform="translate(0,0)"/>
</svg>
